<svg width="28" height="28" viewBox="0 0 28 28" fill="none" xmlns="http://www.w3.org/2000/svg">
<g clip-path="url(#clip0_7207_5937)">
<path d="M28 13.986C28 6.265 21.728 0 14 0C6.272 0 0 6.265 0 13.986C0 18.2385 1.932 22.071 4.956 24.6435C4.984 24.6715 5.012 24.6715 5.012 24.6995C5.264 24.8955 5.516 25.0915 5.796 25.2875C5.936 25.3715 6.048 25.4817 6.188 25.5938C8.50256 27.1604 11.2331 27.9985 14.028 28C16.8229 27.9985 19.5534 27.1604 21.868 25.5938C22.008 25.5097 22.12 25.3995 22.26 25.3138C22.512 25.1195 22.792 24.9235 23.044 24.7275C23.072 24.6995 23.1 24.6995 23.1 24.6715C26.068 22.0692 28 18.2385 28 13.986ZM14 26.2378C11.368 26.2378 8.96 25.3977 6.972 23.9995C7 23.7755 7.056 23.5533 7.112 23.3293C7.2794 22.7224 7.52406 22.1395 7.84 21.595C8.148 21.063 8.512 20.587 8.96 20.167C9.38 19.747 9.884 19.3568 10.388 19.0488C10.92 18.7408 11.48 18.5167 12.096 18.3487C12.717 18.1824 13.3571 18.0983 14 18.0985C15.9088 18.0841 17.7477 18.8163 19.124 20.139C19.768 20.783 20.272 21.5384 20.636 22.4053C20.832 22.9093 20.972 23.4407 21.056 23.9995C18.9896 25.4523 16.526 26.2337 14 26.2378ZM9.716 13.2877C9.4698 12.7227 9.34575 12.1121 9.352 11.4957C9.352 10.8815 9.464 10.2655 9.716 9.7055C9.968 9.1455 10.304 8.64325 10.724 8.22325C11.144 7.80325 11.648 7.469 12.208 7.217C12.768 6.965 13.384 6.853 14 6.853C14.644 6.853 15.232 6.965 15.792 7.217C16.352 7.469 16.856 7.805 17.276 8.22325C17.696 8.64325 18.032 9.14725 18.284 9.7055C18.536 10.2655 18.648 10.8815 18.648 11.4957C18.648 12.1397 18.536 12.7278 18.284 13.286C18.0422 13.8385 17.7005 14.3416 17.276 14.77C16.8474 15.1938 16.3443 15.535 15.792 15.7763C14.6348 16.2508 13.3372 16.2508 12.18 15.7763C11.6277 15.535 11.1246 15.1938 10.696 14.77C10.2712 14.3476 9.93762 13.8443 9.716 13.2877ZM22.708 22.5733C22.708 22.5173 22.68 22.4893 22.68 22.4333C22.4051 21.557 21.9992 20.7275 21.476 19.9728C20.9524 19.2125 20.3094 18.5418 19.572 17.9865C19.0086 17.5625 18.3978 17.2055 17.752 16.9225C18.0444 16.7269 18.3165 16.5023 18.564 16.2522C18.9814 15.8401 19.3481 15.3795 19.656 14.8803C20.2783 13.8623 20.5987 12.6886 20.58 11.4957C20.5892 10.6129 20.4176 9.73742 20.076 8.92325C19.7391 8.13864 19.2543 7.42625 18.648 6.825C18.0411 6.23184 17.329 5.75705 16.548 5.425C15.7326 5.08349 14.8559 4.91257 13.972 4.92275C13.0879 4.91312 12.2113 5.08464 11.396 5.42675C10.6065 5.75475 9.89197 6.24002 9.296 6.853C8.69974 7.45669 8.22453 8.16892 7.896 8.95125C7.55436 9.76542 7.38285 10.6409 7.392 11.5238C7.392 12.1398 7.476 12.7272 7.644 13.286C7.812 13.874 8.036 14.406 8.344 14.9083C8.624 15.4123 9.016 15.8603 9.436 16.2803C9.688 16.5323 9.968 16.7557 10.276 16.9505C9.62727 17.2393 9.01611 17.606 8.456 18.0425C7.728 18.6025 7.084 19.2727 6.552 20.0007C6.02398 20.7526 5.61767 21.583 5.348 22.4613C5.32 22.5173 5.32 22.5732 5.32 22.6012C3.108 20.363 1.736 17.3425 1.736 13.986C1.736 7.245 7.252 1.73425 14 1.73425C20.748 1.73425 26.264 7.245 26.264 13.986C26.2603 17.2059 24.9818 20.2934 22.708 22.5733Z" fill="#A3AED0"/>
</g>
<defs>
<clipPath id="clip0_7207_5937">
<rect width="28" height="28" fill="white"/>
</clipPath>
</defs>
</svg>
