<svg width="26" height="26" viewBox="0 0 26 26" fill="none" xmlns="http://www.w3.org/2000/svg">
<g clip-path="url(#clip0_5404_18616)">
<path d="M4.33333 14.0833H10.8333C11.4292 14.0833 11.9167 13.5958 11.9167 13V4.33333C11.9167 3.7375 11.4292 3.25 10.8333 3.25H4.33333C3.7375 3.25 3.25 3.7375 3.25 4.33333V13C3.25 13.5958 3.7375 14.0833 4.33333 14.0833ZM4.33333 22.75H10.8333C11.4292 22.75 11.9167 22.2625 11.9167 21.6667V17.3333C11.9167 16.7375 11.4292 16.25 10.8333 16.25H4.33333C3.7375 16.25 3.25 16.7375 3.25 17.3333V21.6667C3.25 22.2625 3.7375 22.75 4.33333 22.75ZM15.1667 22.75H21.6667C22.2625 22.75 22.75 22.2625 22.75 21.6667V13C22.75 12.4042 22.2625 11.9167 21.6667 11.9167H15.1667C14.5708 11.9167 14.0833 12.4042 14.0833 13V21.6667C14.0833 22.2625 14.5708 22.75 15.1667 22.75ZM14.0833 4.33333V8.66667C14.0833 9.2625 14.5708 9.75 15.1667 9.75H21.6667C22.2625 9.75 22.75 9.2625 22.75 8.66667V4.33333C22.75 3.7375 22.2625 3.25 21.6667 3.25H15.1667C14.5708 3.25 14.0833 3.7375 14.0833 4.33333Z" fill="#086280"/>
</g>
<defs>
<clipPath id="clip0_5404_18616">
<rect width="26" height="26" fill="white"/>
</clipPath>
</defs>
</svg>
