<svg width="19" height="24" viewBox="0 0 19 24" fill="none" xmlns="http://www.w3.org/2000/svg">
<path d="M0 2.33333C0 1.71449 0.245833 1.121 0.683417 0.683417C1.121 0.245833 1.71449 0 2.33333 0H11.6667C11.9761 6.6077e-05 12.2728 0.123026 12.4915 0.341833L18.3248 6.17517C18.5436 6.39391 18.6666 6.69061 18.6667 7V21C18.6667 21.6188 18.4208 22.2123 17.9832 22.6499C17.5457 23.0875 16.9522 23.3333 16.3333 23.3333H2.33333C1.71449 23.3333 1.121 23.0875 0.683417 22.6499C0.245833 22.2123 0 21.6188 0 21V2.33333ZM15.8503 7L11.6667 2.81633V7H15.8503ZM9.33333 2.33333H2.33333V21H16.3333V9.33333H10.5C10.1906 9.33333 9.89383 9.21042 9.67504 8.99162C9.45625 8.77283 9.33333 8.47609 9.33333 8.16667V2.33333ZM4.66667 12.8333C4.66667 12.5239 4.78958 12.2272 5.00838 12.0084C5.22717 11.7896 5.52391 11.6667 5.83333 11.6667H12.8333C13.1428 11.6667 13.4395 11.7896 13.6583 12.0084C13.8771 12.2272 14 12.5239 14 12.8333C14 13.1428 13.8771 13.4395 13.6583 13.6583C13.4395 13.8771 13.1428 14 12.8333 14H5.83333C5.52391 14 5.22717 13.8771 5.00838 13.6583C4.78958 13.4395 4.66667 13.1428 4.66667 12.8333ZM4.66667 17.5C4.66667 17.1906 4.78958 16.8938 5.00838 16.675C5.22717 16.4562 5.52391 16.3333 5.83333 16.3333H12.8333C13.1428 16.3333 13.4395 16.4562 13.6583 16.675C13.8771 16.8938 14 17.1906 14 17.5C14 17.8094 13.8771 18.1062 13.6583 18.325C13.4395 18.5438 13.1428 18.6667 12.8333 18.6667H5.83333C5.52391 18.6667 5.22717 18.5438 5.00838 18.325C4.78958 18.1062 4.66667 17.8094 4.66667 17.5Z" fill="#A3AED0"/>
</svg>
