<svg width="35" height="35" viewBox="0 0 35 35" fill="none" xmlns="http://www.w3.org/2000/svg">
<path d="M19.3862 0C19.9007 0 20.3609 0.32025 20.5342 0.79975L21.7697 4.2245C22.2118 4.33417 22.5933 4.44617 22.9142 4.5605C23.2642 4.68533 23.7192 4.87783 24.2792 5.138L27.1562 3.6155C27.3909 3.49052 27.6598 3.44529 27.9225 3.48665C28.1852 3.528 28.4272 3.6537 28.6122 3.84475L31.1427 6.461C31.4787 6.80925 31.5732 7.3185 31.3842 7.763L30.0349 10.9253C30.2578 11.3359 30.4374 11.6883 30.5739 11.9823C30.7209 12.3008 30.9029 12.7441 31.1199 13.3123L34.2647 14.6598C34.7372 14.861 35.0294 15.3335 34.9979 15.8393L34.7669 19.4705C34.7511 19.7064 34.6664 19.9325 34.5233 20.1207C34.3802 20.3089 34.185 20.451 33.9619 20.5293L30.9834 21.588C30.8983 21.9987 30.8084 22.3522 30.7139 22.6485C30.561 23.1078 30.387 23.5598 30.1924 24.003L31.6887 27.3105C31.7951 27.5427 31.824 27.8031 31.7711 28.053C31.7181 28.3029 31.5861 28.5291 31.3947 28.6983L28.5492 31.2393C28.3621 31.4066 28.1282 31.5124 27.8791 31.5424C27.63 31.5725 27.3776 31.5253 27.1562 31.4073L24.2232 29.8533C23.7648 30.0972 23.2913 30.3117 22.8057 30.4955L21.5247 30.975L20.3872 34.125C20.3021 34.3551 20.1498 34.5544 19.9501 34.697C19.7504 34.8396 19.5125 34.919 19.2672 34.9248L15.9422 35C15.6903 35.0059 15.4427 34.9339 15.2332 34.7939C15.0237 34.6539 14.8624 34.4527 14.7714 34.2178L13.4309 30.6705C12.9737 30.5139 12.5208 30.3446 12.0729 30.163C11.7067 30.0045 11.346 29.8335 10.9914 29.6503L7.66642 31.0713C7.44741 31.1652 7.20577 31.1932 6.9711 31.1518C6.73642 31.1105 6.51889 31.0016 6.34517 30.8385L3.88467 28.5303C3.70079 28.3596 3.57556 28.1352 3.52684 27.8891C3.47813 27.643 3.50843 27.3878 3.61342 27.16L5.04317 24.045C4.85369 23.6757 4.67741 23.2998 4.51467 22.918C4.32509 22.4504 4.15001 21.9771 3.98967 21.4988L0.857167 20.545C0.602543 20.468 0.380457 20.3092 0.225399 20.093C0.0703405 19.8769 -0.00901134 19.6156 -0.000333492 19.3498L0.122167 15.988C0.131267 15.7688 0.19994 15.5561 0.320806 15.373C0.441672 15.1898 0.610161 15.0431 0.808167 14.9485L4.09467 13.37C4.24633 12.8123 4.3805 12.376 4.49717 12.061C4.66228 11.6379 4.84562 11.2222 5.04667 10.815L3.62217 7.805C3.51324 7.57659 3.47997 7.3194 3.52717 7.07079C3.57438 6.82218 3.6996 6.59509 3.88467 6.4225L6.34167 4.102C6.51367 3.93917 6.7292 3.82969 6.96214 3.78683C7.19509 3.74397 7.43547 3.76956 7.65417 3.8605L10.9757 5.2325C11.342 4.98867 11.6757 4.788 11.9767 4.6305C12.3348 4.4415 12.8155 4.23967 13.4187 4.025L14.5737 0.80325C14.6599 0.568036 14.8162 0.364923 15.0215 0.221295C15.2268 0.0776677 15.4711 0.000431566 15.7217 0L19.3862 0ZM18.5287 2.40975H16.5809L15.5222 5.37425C15.4591 5.54666 15.3581 5.7027 15.2267 5.83083C15.0952 5.95896 14.9366 6.05591 14.7627 6.1145C13.9997 6.36825 13.4484 6.587 13.1264 6.75675C12.7834 6.93758 12.3518 7.21175 11.8314 7.57925C11.6621 7.69869 11.4652 7.77322 11.2592 7.79586C11.0533 7.81851 10.8449 7.78854 10.6537 7.70875L7.45117 6.3875L6.20342 7.567L7.50367 10.3145C7.58151 10.478 7.62103 10.657 7.61921 10.8381C7.61739 11.0191 7.57428 11.1974 7.49317 11.3593C7.14317 12.061 6.90692 12.579 6.78792 12.8975C6.60466 13.4275 6.44698 13.9659 6.31542 14.511C6.27145 14.6815 6.19071 14.8404 6.07885 14.9764C5.967 15.1125 5.82674 15.2224 5.66792 15.2985L2.53542 16.8018L2.47242 18.5168L5.30742 19.3778C5.68367 19.4915 5.98117 19.7803 6.10542 20.1513C6.38658 20.9936 6.60825 21.6096 6.77042 21.9993C6.98375 22.4923 7.21966 22.9752 7.47742 23.4465C7.56462 23.6087 7.61301 23.7888 7.61878 23.9728C7.62455 24.1569 7.58754 24.3397 7.51067 24.507L6.19642 27.3735L7.44067 28.5425L10.5592 27.209C10.7271 27.1369 10.909 27.1032 11.0916 27.1104C11.2741 27.1177 11.4528 27.1657 11.6144 27.251C12.2561 27.587 12.728 27.8192 13.0302 27.9475C13.3364 28.0753 13.9227 28.2888 14.7732 28.5793C14.9416 28.6377 15.0953 28.7321 15.2234 28.856C15.3516 28.98 15.4511 29.1304 15.5152 29.2968L16.7542 32.571L18.3747 32.536L19.4194 29.6415C19.48 29.4768 19.5752 29.327 19.6987 29.2023C19.8222 29.0776 19.9711 28.9809 20.1352 28.9188L21.9499 28.2398C22.4096 28.0706 22.9643 27.8023 23.6142 27.4348C23.7937 27.3333 23.9959 27.2789 24.2021 27.2764C24.4083 27.274 24.6118 27.3236 24.7937 27.4208L27.5534 28.882L29.1057 27.4978L27.7477 24.5C27.6778 24.3461 27.6415 24.1792 27.6412 24.0102C27.6409 23.8412 27.6766 23.6741 27.7459 23.52C28.0644 22.8078 28.2797 22.2705 28.3882 21.9275C28.4967 21.5892 28.6046 21.1079 28.7119 20.4838C28.7486 20.2721 28.8411 20.0741 28.9799 19.9102C29.1186 19.7462 29.2985 19.6222 29.5012 19.551L32.3852 18.5273L32.5112 16.5323L29.6762 15.3178C29.5257 15.2528 29.3897 15.1583 29.2764 15.0399C29.1631 14.9215 29.0747 14.7815 29.0164 14.6283C28.8147 14.0703 28.594 13.5193 28.3549 12.9763C28.1289 12.5033 27.8837 12.0397 27.6199 11.5868C27.5283 11.4268 27.475 11.2478 27.4644 11.0637C27.4538 10.8797 27.486 10.6957 27.5587 10.5263L28.8274 7.55125L27.4904 6.16875L24.8864 7.54775C24.7165 7.63832 24.5277 7.68757 24.3353 7.69152C24.1428 7.69548 23.9521 7.65401 23.7787 7.5705C23.2263 7.29498 22.661 7.0462 22.0847 6.825C21.5938 6.65925 21.0928 6.52482 20.5849 6.4225C20.3838 6.37887 20.197 6.2853 20.0416 6.15042C19.8863 6.01554 19.7674 5.8437 19.6959 5.65075L18.5287 2.40975ZM17.5417 9.87175C21.8029 9.87175 25.2592 13.2895 25.2592 17.5035C25.2592 21.7175 21.8029 25.1335 17.5417 25.1335C13.2804 25.1335 9.82417 21.7175 9.82417 17.5035C9.82417 13.2895 13.2787 9.8735 17.5417 9.8735M17.5417 12.285C14.6244 12.285 12.2602 14.6213 12.2602 17.5053C12.2602 20.3893 14.6244 22.7273 17.5417 22.7273C20.4589 22.7273 22.8214 20.3893 22.8214 17.5053C22.8214 14.6213 20.4589 12.285 17.5417 12.285Z" fill="#A3AED0"/>
</svg>
