<svg width="24" height="24" viewBox="0 0 24 24" fill="currentColor" xmlns="http://www.w3.org/2000/svg">
<path d="M12.0007 0.333008C5.56765 0.333008 0.333984 5.56667 0.333984 11.9997V16.8332C0.333984 18.0278 1.38048 18.9997 2.66732 18.9997H3.83398C4.1434 18.9997 4.44015 18.8768 4.65894 18.658C4.87773 18.4392 5.00065 18.1424 5.00065 17.833V11.8328C5.00065 11.5234 4.87773 11.2267 4.65894 11.0079C4.44015 10.7891 4.1434 10.6662 3.83398 10.6662H2.77465C3.42332 6.15118 7.30832 2.66634 12.0007 2.66634C16.693 2.66634 20.578 6.15118 21.2267 10.6662H20.1673C19.8579 10.6662 19.5612 10.7891 19.3424 11.0079C19.1236 11.2267 19.0007 11.5234 19.0007 11.8328V18.9997C19.0007 20.2865 17.9542 21.333 16.6673 21.333H14.334V20.1663H9.66732V23.6663H16.6673C19.241 23.6663 21.334 21.5733 21.334 18.9997C22.6208 18.9997 23.6673 18.0278 23.6673 16.8332V11.9997C23.6673 5.56667 18.4337 0.333008 12.0007 0.333008Z" fill="#A3AED0"/>
</svg>
