<svg width="24" height="25" viewBox="0 0 24 25" fill="none" xmlns="http://www.w3.org/2000/svg">
<path d="M7.72937 20.012C7.20498 20.1853 6.92036 20.7509 7.09367 21.2753C7.26697 21.7997 7.83256 22.0843 8.35695 21.911L7.72937 20.012ZM13.8622 21.3462L13.7722 20.3502L13.8622 21.3462ZM17.3536 20.5769L17.7891 21.4771H17.7891L17.3536 20.5769ZM20.6897 17.5681L19.9153 16.9354L20.6897 17.5681ZM18.408 15.6854L19.1121 16.3955L18.408 15.6854ZM16.8715 17.2087L17.5756 17.9188L16.8715 17.2087ZM12.6984 16.8846C12.1461 16.8846 11.6984 17.3323 11.6984 17.8846C11.6984 18.4369 12.1461 18.8846 12.6984 18.8846V16.8846ZM20.335 15.4962L19.7836 16.3305L20.335 15.4962ZM9.22402 14.9915L9.66816 15.8875H9.66816L9.22402 14.9915ZM13.4001 14.6128L13.6611 13.6475H13.6611L13.4001 14.6128ZM15.0309 15.0538L14.7699 16.0191H14.7699L15.0309 15.0538ZM15.5476 16.9829L14.8435 16.2727L15.5476 16.9829ZM13.934 17.1745C13.5418 17.5633 13.5391 18.1965 13.9279 18.5887C14.3168 18.9809 14.9499 18.9836 15.3421 18.5948L13.934 17.1745ZM8.35695 21.911C8.4545 21.8788 8.67974 21.8518 9.10006 21.8815C9.50005 21.9098 9.96832 21.9794 10.5079 22.0634C11.5286 22.2224 12.8321 22.4433 13.9521 22.3421L13.7722 20.3502C12.9526 20.4242 11.9284 20.2605 10.8156 20.0872C10.2883 20.0051 9.73824 19.9216 9.24113 19.8865C8.76435 19.8528 8.21371 19.852 7.72937 20.012L8.35695 21.911ZM13.9521 22.3421C15.4538 22.2065 16.2079 22.2421 17.7891 21.4771L16.9181 19.6767C15.7223 20.2553 15.3478 20.2079 13.7722 20.3502L13.9521 22.3421ZM17.7891 21.4771C19.219 20.7853 20.6284 19.2238 21.4642 18.2007L19.9153 16.9354C19.0698 17.9704 17.9056 19.199 16.9181 19.6767L17.7891 21.4771ZM17.7039 14.9753L16.1675 16.4986L17.5756 17.9188L19.1121 16.3955L17.7039 14.9753ZM15.2257 16.8846H12.6984V18.8846H15.2257V16.8846ZM16.1675 16.4986C15.9191 16.7448 15.5805 16.8846 15.2257 16.8846V18.8846C16.1054 18.8846 16.9509 18.5382 17.5756 17.9188L16.1675 16.4986ZM20.8864 14.662C19.8866 14.0011 18.5558 14.1307 17.7039 14.9753L19.1121 16.3955C19.2897 16.2194 19.572 16.1906 19.7836 16.3305L20.8864 14.662ZM21.4642 18.2007C22.4053 17.0487 22.046 15.4284 20.8864 14.662L19.7836 16.3305C20.0394 16.4995 20.0448 16.7769 19.9153 16.9354L21.4642 18.2007ZM3.77587 15.0385H6.87935V13.0385H3.77587V15.0385ZM6.65522 14.8077V21.7308H8.65522V14.8077H6.65522ZM6.87935 21.5H3.77587V23.5H6.87935V21.5ZM4 21.7308V14.8077H2V21.7308H4ZM3.77587 21.5C3.89153 21.5 4 21.5952 4 21.7308H2C2 22.716 2.80321 23.5 3.77587 23.5V21.5ZM6.65522 21.7308C6.65522 21.5952 6.76369 21.5 6.87935 21.5V23.5C7.85201 23.5 8.65522 22.716 8.65522 21.7308H6.65522ZM6.87935 15.0385C6.76369 15.0385 6.65522 14.9432 6.65522 14.8077H8.65522C8.65522 13.8225 7.85202 13.0385 6.87935 13.0385V15.0385ZM3.77587 13.0385C2.8032 13.0385 2 13.8225 2 14.8077H4C4 14.9432 3.89153 15.0385 3.77587 15.0385V13.0385ZM8.4873 16.4729L9.66816 15.8875L8.77987 14.0956L7.59901 14.681L8.4873 16.4729ZM11.6529 15.4231H11.9711V13.4231H11.6529V15.4231ZM13.1391 15.5781L14.7699 16.0191L15.2919 14.0884L13.6611 13.6475L13.1391 15.5781ZM14.8435 16.2727L13.934 17.1745L15.3421 18.5948L16.2517 17.693L14.8435 16.2727ZM14.7699 16.0191C14.8963 16.0533 14.922 16.1949 14.8435 16.2727L16.2517 17.693C17.4369 16.5179 16.8897 14.5205 15.2919 14.0884L14.7699 16.0191ZM11.9711 15.4231C12.3657 15.4231 12.7585 15.4752 13.1391 15.5781L13.6611 13.6475C13.1102 13.4985 12.5419 13.4231 11.9711 13.4231V15.4231ZM9.66816 15.8875C10.284 15.5822 10.9635 15.4231 11.6529 15.4231V13.4231C10.6559 13.4231 9.67231 13.6532 8.77987 14.0956L9.66816 15.8875ZM16.7415 8.65385C16.7415 9.79281 15.8079 10.7308 14.6381 10.7308V12.7308C16.8962 12.7308 18.7415 10.9136 18.7415 8.65385H16.7415ZM14.6381 10.7308C13.4682 10.7308 12.5346 9.79281 12.5346 8.65385H10.5346C10.5346 10.9136 12.3799 12.7308 14.6381 12.7308V10.7308ZM12.5346 8.65385C12.5346 7.51488 13.4682 6.57692 14.6381 6.57692V4.57692C12.3799 4.57692 10.5346 6.39414 10.5346 8.65385H12.5346ZM14.6381 6.57692C15.8079 6.57692 16.7415 7.51488 16.7415 8.65385H18.7415C18.7415 6.39414 16.8962 4.57692 14.6381 4.57692V6.57692ZM11.5346 7.65385C10.3647 7.65385 9.43109 6.71589 9.43109 5.57692H7.43109C7.43109 7.83663 9.2764 9.65385 11.5346 9.65385V7.65385ZM9.43109 5.57692C9.43109 4.43796 10.3647 3.5 11.5346 3.5V1.5C9.2764 1.5 7.43109 3.31722 7.43109 5.57692H9.43109ZM11.5346 3.5C12.7044 3.5 13.6381 4.43796 13.6381 5.57692H15.6381C15.6381 3.31722 13.7927 1.5 11.5346 1.5V3.5Z" fill="black"/>
</svg>
