<svg width="40" height="40" viewBox="0 0 40 40" fill="none" xmlns="http://www.w3.org/2000/svg">
<path d="M18.1517 5.28687C18.7866 3.57104 21.2134 3.57104 21.8483 5.28687L25.0085 13.8271C25.2081 14.3666 25.6334 14.7919 26.1729 14.9915L34.7131 18.1517C36.429 18.7866 36.429 21.2134 34.7131 21.8483L26.1729 25.0085C25.6334 25.2081 25.2081 25.6334 25.0085 26.1729L21.8483 34.7131C21.2134 36.429 18.7866 36.429 18.1517 34.7131L14.9915 26.1729C14.7919 25.6334 14.3666 25.2081 13.8271 25.0085L5.28687 21.8483C3.57104 21.2134 3.57104 18.7866 5.28687 18.1517L13.8271 14.9915C14.3666 14.7919 14.7919 14.3666 14.9915 13.8271L18.1517 5.28687Z" stroke="#27B5FC" stroke-width="2" stroke-linejoin="round"/>
</svg>
