<svg width="26" height="30" viewBox="0 0 26 30" fill="none" xmlns="http://www.w3.org/2000/svg">
<path d="M23.375 10.625H14.875V2.125H2.125V27.625H23.375V10.625ZM22.4953 8.5L17 3.00475V8.5H22.4953ZM1.0625 0H17L25.5 8.5V28.6875C25.5 28.9693 25.3881 29.2395 25.1888 29.4388C24.9895 29.6381 24.7193 29.75 24.4375 29.75H1.0625C0.780707 29.75 0.510457 29.6381 0.311199 29.4388C0.111942 29.2395 0 28.9693 0 28.6875V1.0625C0 0.780707 0.111942 0.510456 0.311199 0.311199C0.510457 0.111942 0.780707 0 1.0625 0ZM6.375 14.875H19.125V17H6.375V14.875ZM6.375 8.5H11.6875V10.625H6.375V8.5ZM6.375 21.25H19.125V23.375H6.375V21.25Z" fill="#111111" fill-opacity="0.53"/>
</svg>
