<svg width="40" height="23" viewBox="0 0 40 23" fill="none" xmlns="http://www.w3.org/2000/svg">
<path d="M10.3682 8.62906V15.1194C10.3682 15.4422 10.4964 15.7517 10.7246 15.98C10.9528 16.2082 11.2624 16.3364 11.5851 16.3364C11.9079 16.3364 12.2174 16.2082 12.4456 15.98C12.6738 15.7517 12.8021 15.4422 12.8021 15.1194V8.62906C12.8021 8.3063 12.6738 7.99677 12.4456 7.76854C12.2174 7.54032 11.9079 7.41211 11.5851 7.41211C11.2624 7.41211 10.9528 7.54032 10.7246 7.76854C10.4964 7.99677 10.3682 8.3063 10.3682 8.62906Z" fill="#111111" fill-opacity="0.53"/>
<path d="M8.33999 13.0921H14.8304C15.1531 13.0921 15.4627 12.9639 15.6909 12.7357C15.9191 12.5074 16.0473 12.1979 16.0473 11.8752C16.0473 11.5524 15.9191 11.2429 15.6909 11.0146C15.4627 10.7864 15.1531 10.6582 14.8304 10.6582H8.33999C8.01724 10.6582 7.70771 10.7864 7.47949 11.0146C7.25127 11.2429 7.12305 11.5524 7.12305 11.8752C7.12305 12.1979 7.25127 12.5074 7.47949 12.7357C7.70771 12.9639 8.01724 13.0921 8.33999 13.0921Z" fill="#111111" fill-opacity="0.53"/>
<path d="M28.2169 22.8277H11.991C8.97861 22.8277 6.08962 21.631 3.95955 19.5009C1.82948 17.3709 0.632812 14.4819 0.632812 11.4695C0.632812 8.45713 1.82948 5.56813 3.95955 3.43806C6.08962 1.30799 8.97861 0.111328 11.991 0.111328H28.2169C31.2293 0.111328 34.1183 1.30799 36.2484 3.43806C38.3785 5.56813 39.5751 8.45713 39.5751 11.4695C39.5751 14.4819 38.3785 17.3709 36.2484 19.5009C34.1183 21.631 31.2293 22.8277 28.2169 22.8277ZM28.2169 20.3938C30.5838 20.3938 32.8537 19.4535 34.5274 17.7799C36.201 16.1063 37.1412 13.8364 37.1412 11.4695C37.1412 9.10263 36.201 6.83271 34.5274 5.15908C32.8537 3.48546 30.5838 2.54522 28.2169 2.54522H11.991C9.62412 2.54522 7.3542 3.48546 5.68057 5.15908C4.00695 6.83271 3.06671 9.10263 3.06671 11.4695C3.06671 13.8364 4.00695 16.1063 5.68057 17.7799C7.3542 19.4535 9.62412 20.3938 11.991 20.3938H28.2169Z" fill="#111111" fill-opacity="0.53"/>
<path fill-rule="evenodd" clip-rule="evenodd" d="M27.4061 14.3081C27.4061 14.8461 27.1924 15.362 26.812 15.7423C26.4317 16.1227 25.9158 16.3364 25.3779 16.3364C24.8399 16.3364 24.324 16.1227 23.9437 15.7423C23.5633 15.362 23.3496 14.8461 23.3496 14.3081C23.3496 13.7702 23.5633 13.2543 23.9437 12.874C24.324 12.4936 24.8399 12.2799 25.3779 12.2799C25.9158 12.2799 26.4317 12.4936 26.812 12.874C27.1924 13.2543 27.4061 13.7702 27.4061 14.3081ZM32.2739 9.44035C32.2739 9.97828 32.0602 10.4942 31.6798 10.8745C31.2995 11.2549 30.7836 11.4686 30.2456 11.4686C29.7077 11.4686 29.1918 11.2549 28.8115 10.8745C28.4311 10.4942 28.2174 9.97828 28.2174 9.44035C28.2174 8.90243 28.4311 8.38654 28.8115 8.00617C29.1918 7.6258 29.7077 7.41211 30.2456 7.41211C30.7836 7.41211 31.2995 7.6258 31.6798 8.00617C32.0602 8.38654 32.2739 8.90243 32.2739 9.44035Z" fill="#111111" fill-opacity="0.53"/>
</svg>
