<svg width="33" height="33" viewBox="0 0 33 33" fill="none" xmlns="http://www.w3.org/2000/svg">
<path d="M9.63681 32.1191C9.06102 32.1191 8.59372 31.6518 8.59372 31.076C8.59372 30.5002 9.06102 30.0329 9.63681 30.0329H24.2402C24.816 30.0329 25.2833 30.5002 25.2833 31.076C25.2833 31.6518 24.816 32.1191 24.2402 32.1191H9.63681ZM21.3376 14.8677L14.2334 19.1471C13.5881 19.5352 12.7661 19.072 12.7661 18.3182V9.75787C12.7661 9.00545 13.5881 8.54092 14.2334 8.92895L21.3376 13.2098C21.9621 13.5853 21.9621 14.4907 21.3376 14.8677ZM27.7172 25.1651C29.4445 25.1651 30.8465 23.7632 30.8465 22.0358V6.04166C30.8465 4.31429 29.4445 2.91237 27.7172 2.91237H6.15982C4.43245 2.91237 3.03053 4.31429 3.03053 6.04166V22.0358C3.03053 23.7632 4.43245 25.1651 6.15982 25.1651H27.7172ZM27.7172 27.2513H6.15982C3.27948 27.2513 0.944336 24.9162 0.944336 22.0358V6.04166C0.944336 3.16132 3.27948 0.826172 6.15982 0.826172H27.7172C30.5975 0.826172 32.9327 3.16132 32.9327 6.04166V22.0358C32.9327 24.9162 30.5975 27.2513 27.7172 27.2513Z" fill="#111111" fill-opacity="0.53"/>
</svg>
