<svg width="147" height="163" viewBox="0 0 147 163" fill="none" xmlns="http://www.w3.org/2000/svg">
<path d="M57.0289 20.0289L107.25 23.0433L134.971 65.0289L78.7212 162.457L0.77887 117.457L57.0289 20.0289Z" fill="white"/>
<path d="M84.75 62.0144L86.8255 78.5104L102.222 84.7847L92.0254 97.9167L98.476 113.24L81.98 115.316L75.7057 130.713L62.5737 120.516L47.25 126.966L45.1745 110.47L29.7778 104.196L39.9746 91.0641L33.524 75.7404L50.02 73.6649L56.2943 58.2682L69.4263 68.465L84.75 62.0144Z" fill="#4F4F4F"/>
<ellipse cx="70.0148" cy="109.474" rx="5.90625" ry="5.90625" transform="rotate(30 70.0148 109.474)" stroke="#F1F2F6" stroke-width="3"/>
<ellipse cx="61.9851" cy="79.5068" rx="5.90625" ry="5.90625" transform="rotate(30 61.9851 79.5068)" stroke="#F1F2F6" stroke-width="3"/>
<path d="M89.0517 88.3137L42.9483 100.667" stroke="#F1F2F6" stroke-width="3"/>
</svg>
