<svg xmlns="http://www.w3.org/2000/svg" width="16" height="16" viewBox="0 0 16 16">
  <g fill="none" fill-rule="evenodd">
    <rect width="16" height="16"/>
    <path stroke="#05A569" stroke-linecap="round" stroke-linejoin="round" stroke-width="2" d="M11,2 L11,4 M5,2 L5,4 M10,14 L4,14 C2.8954305,14 2,13.1045695 2,12 L2,5 C2,3.8954305 2.8954305,3 4,3 L12,3 C13.1045695,3 14,3.8954305 14,5 L14,5"/>
    <path stroke="#05A569" stroke-linecap="round" stroke-linejoin="round" stroke-width="2" d="M5.25 10.75L5.25 11.25 4.75 11.25 4.75 10.75 5.25 10.75zM8.25 10.75L8.25 11.25 7.75 11.25 7.75 10.75 8.25 10.75zM12 12L13 12C14.1045695 12 15 11.1045695 15 10L15 10C15 8.8954305 14.1045695 8 13 8L8 8M10 6L8 8 10 10"/>
    <polygon stroke="#05A569" stroke-linecap="round" stroke-linejoin="round" stroke-width="2" points="5.25 7.75 5.25 8.25 4.75 8.25 4.75 7.75"/>
  </g>
</svg>
