<svg width="24" height="25" viewBox="0 0 24 25" fill="none" xmlns="http://www.w3.org/2000/svg">
<path d="M8.34375 19.2094V8.97863M16.0625 19.2094V15.2308M8.9375 8.41026V6.13675C8.9375 5.50894 9.46916 5 10.125 5H14.2812C14.9371 5 15.4688 5.50894 15.4688 6.13675V8.41026M16.0625 11.2521H13.0938V14.094V15.2308H18.4375V11.2521H16.0625ZM16.0625 11.2521V8.41026M16.0625 8.41026H5.375C4.06332 8.41026 3 9.42814 3 10.6838V17.5043C3 18.7599 4.06332 19.7778 5.375 19.7778H19.625C20.9367 19.7778 22 18.7599 22 17.5043V10.6838C22 9.42814 20.9367 8.41026 19.625 8.41026H16.0625Z" stroke="black" stroke-width="2" stroke-linecap="round" stroke-linejoin="round"/>
</svg>
