<svg width="193" height="208" viewBox="0 0 193 208" fill="none" xmlns="http://www.w3.org/2000/svg">
<path d="M105.182 138.347V138.12L104.956 138.098C91.0256 136.761 79.2371 131.117 70.9317 122.18C62.6269 113.243 57.7914 100.999 57.7914 86.4363V72.5229C57.7914 68.9246 60.7095 66.134 64.3216 66.134C67.9336 66.134 70.8517 68.9246 70.8517 72.5229V85.9419C70.8517 98.0418 74.9513 108.085 82.0943 115.104C89.2368 122.122 99.4026 126.096 111.5 126.096C123.597 126.096 133.763 122.122 140.906 115.104C148.049 108.085 152.148 98.0418 152.148 85.9419V72.5229C152.148 68.9279 155.134 66.134 158.749 66.134C162.358 66.134 165.209 68.9212 165.209 72.5229V86.4363C165.209 100.999 160.373 113.243 152.068 122.18C143.763 131.117 131.974 136.761 118.044 138.098L117.818 138.12V138.347V152.684V152.934H118.068H143.988C147.6 152.934 150.589 155.795 150.589 159.393C150.589 162.923 147.598 165.853 143.988 165.853H79.0119C75.4016 165.853 72.4111 162.923 72.4111 159.393C72.4111 155.795 75.3999 152.934 79.0119 152.934H104.932H105.182V152.684V138.347ZM136.181 84.8119C136.181 100.364 125.689 110.976 111.5 110.976C97.3113 110.976 86.8189 100.364 86.8189 84.8119V37.2097C86.8189 21.658 97.3113 11.0454 111.5 11.0454C125.689 11.0454 136.181 21.658 136.181 37.2097V84.8119Z" fill="url(#paint0_linear_2296_33)" stroke="url(#paint1_linear_2296_33)" stroke-width="0.5"/>
<defs>
<linearGradient id="paint0_linear_2296_33" x1="56.8571" y1="2.28574" x2="206.005" y2="51.2699" gradientUnits="userSpaceOnUse">
<stop offset="1" stop-color="white"/>
</linearGradient>
<linearGradient id="paint1_linear_2296_33" x1="115.997" y1="10.7954" x2="111.102" y2="165.948" gradientUnits="userSpaceOnUse">
<stop stop-color="#F9E4DC"/>
<stop offset="1" stop-color="#F9E4DC" stop-opacity="0.5"/>
</linearGradient>
</defs>
</svg>
