<svg width="147" height="141" viewBox="0 0 147 141" fill="none" xmlns="http://www.w3.org/2000/svg">
<path d="M57.6309 25.6866C63.6503 10.6802 66.6601 3.177 71.5499 2.13708C72.8356 1.86365 74.1644 1.86365 75.4502 2.13708C80.34 3.177 83.3497 10.6802 89.3691 25.6866C92.7923 34.2205 94.5039 38.4875 97.7065 41.3896C98.6048 42.2037 99.5799 42.9287 100.618 43.5545C104.32 45.7855 108.941 46.1993 118.182 47.027C133.827 48.4281 141.649 49.1286 144.038 53.5887C144.533 54.5125 144.869 55.5126 145.033 56.5475C145.825 61.5447 140.075 66.7765 128.573 77.2401L125.38 80.1458C120.003 85.0377 117.314 87.4837 115.759 90.5362C114.826 92.3673 114.201 94.3393 113.908 96.3734C113.419 99.7642 114.206 103.313 115.781 110.409L116.344 112.945C119.167 125.672 120.579 132.035 118.817 135.163C117.234 137.973 114.318 139.771 111.096 139.925C107.51 140.096 102.457 135.979 92.3511 127.744C85.6929 122.319 82.3638 119.606 78.6681 118.546C75.2908 117.578 71.7093 117.578 68.3319 118.546C64.6362 119.606 61.3071 122.319 54.6489 127.744C44.5429 135.979 39.4899 140.096 35.9037 139.925C32.6825 139.771 29.7665 137.973 28.1833 135.163C26.4209 132.035 27.8328 125.672 30.6565 112.945L31.219 110.409C32.7936 103.313 33.5809 99.7642 33.0923 96.3734C32.7993 94.3393 32.1738 92.3673 31.241 90.5362C29.6859 87.4837 26.9974 85.0377 21.6204 80.1458L18.4266 77.2401C6.92548 66.7765 1.17491 61.5447 1.96685 56.5475C2.13086 55.5126 2.46723 54.5124 2.96196 53.5887C5.35071 49.1286 13.173 48.4281 28.8177 47.027C38.0594 46.1993 42.6803 45.7855 46.3819 43.5545C47.4201 42.9287 48.3953 42.2037 49.2936 41.3896C52.4962 38.4875 54.2077 34.2205 57.6309 25.6866Z" fill="#F3F1F1" stroke="#F3F1F1" stroke-width="2"/>
</svg>
