<svg width="31" height="31" viewBox="0 0 31 31" fill="none" xmlns="http://www.w3.org/2000/svg">
<path fill-rule="evenodd" clip-rule="evenodd" d="M6.75033 3.83203H24.2503C25.7974 3.83203 27.2812 4.44661 28.3751 5.54057C29.4691 6.63454 30.0837 8.11827 30.0837 9.66536V24.2487C30.0837 25.7958 29.4691 27.2795 28.3751 28.3735C27.2812 29.4674 25.7974 30.082 24.2503 30.082H6.75033C5.20323 30.082 3.7195 29.4674 2.62554 28.3735C1.53157 27.2795 0.916992 25.7958 0.916992 24.2487V9.66536C0.916992 8.11827 1.53157 6.63454 2.62554 5.54057C3.7195 4.44661 5.20323 3.83203 6.75033 3.83203ZM6.75033 6.7487C5.97678 6.7487 5.23491 7.05599 4.68793 7.60297C4.14095 8.14995 3.83366 8.89182 3.83366 9.66536V24.2487C3.83366 25.0222 4.14095 25.7641 4.68793 26.3111C5.23491 26.8581 5.97678 27.1654 6.75033 27.1654H24.2503C25.0239 27.1654 25.7657 26.8581 26.3127 26.3111C26.8597 25.7641 27.167 25.0222 27.167 24.2487V9.66536C27.167 8.89182 26.8597 8.14995 26.3127 7.60297C25.7657 7.05599 25.0239 6.7487 24.2503 6.7487H6.75033Z" fill="#111111" fill-opacity="0.53"/>
<path fill-rule="evenodd" clip-rule="evenodd" d="M2.375 12.5827C2.375 12.1959 2.52865 11.825 2.80214 11.5515C3.07563 11.278 3.44656 11.1243 3.83333 11.1243H27.1667C27.5534 11.1243 27.9244 11.278 28.1979 11.5515C28.4714 11.825 28.625 12.1959 28.625 12.5827C28.625 12.9695 28.4714 13.3404 28.1979 13.6139C27.9244 13.8874 27.5534 14.041 27.1667 14.041H3.83333C3.44656 14.041 3.07563 13.8874 2.80214 13.6139C2.52865 13.3404 2.375 12.9695 2.375 12.5827ZM9.66667 0.916016C10.0534 0.916016 10.4244 1.06966 10.6979 1.34315C10.9714 1.61664 11.125 1.98757 11.125 2.37435V8.20768C11.125 8.59446 10.9714 8.96539 10.6979 9.23888C10.4244 9.51237 10.0534 9.66602 9.66667 9.66602C9.27989 9.66602 8.90896 9.51237 8.63547 9.23888C8.36198 8.96539 8.20833 8.59446 8.20833 8.20768V2.37435C8.20833 1.98757 8.36198 1.61664 8.63547 1.34315C8.90896 1.06966 9.27989 0.916016 9.66667 0.916016ZM21.3333 0.916016C21.7201 0.916016 22.091 1.06966 22.3645 1.34315C22.638 1.61664 22.7917 1.98757 22.7917 2.37435V8.20768C22.7917 8.59446 22.638 8.96539 22.3645 9.23888C22.091 9.51237 21.7201 9.66602 21.3333 9.66602C20.9466 9.66602 20.5756 9.51237 20.3021 9.23888C20.0286 8.96539 19.875 8.59446 19.875 8.20768V2.37435C19.875 1.98757 20.0286 1.61664 20.3021 1.34315C20.5756 1.06966 20.9466 0.916016 21.3333 0.916016Z" fill="#111111" fill-opacity="0.53"/>
<path d="M9.66667 16.9583C9.66667 17.3451 9.51302 17.716 9.23953 17.9895C8.96604 18.263 8.59511 18.4167 8.20833 18.4167C7.82156 18.4167 7.45063 18.263 7.17714 17.9895C6.90365 17.716 6.75 17.3451 6.75 16.9583C6.75 16.5716 6.90365 16.2006 7.17714 15.9271C7.45063 15.6536 7.82156 15.5 8.20833 15.5C8.59511 15.5 8.96604 15.6536 9.23953 15.9271C9.51302 16.2006 9.66667 16.5716 9.66667 16.9583ZM9.66667 22.7917C9.66667 23.1784 9.51302 23.5494 9.23953 23.8229C8.96604 24.0964 8.59511 24.25 8.20833 24.25C7.82156 24.25 7.45063 24.0964 7.17714 23.8229C6.90365 23.5494 6.75 23.1784 6.75 22.7917C6.75 22.4049 6.90365 22.034 7.17714 21.7605C7.45063 21.487 7.82156 21.3333 8.20833 21.3333C8.59511 21.3333 8.96604 21.487 9.23953 21.7605C9.51302 22.034 9.66667 22.4049 9.66667 22.7917ZM16.9583 16.9583C16.9583 17.3451 16.8047 17.716 16.5312 17.9895C16.2577 18.263 15.8868 18.4167 15.5 18.4167C15.1132 18.4167 14.7423 18.263 14.4688 17.9895C14.1953 17.716 14.0417 17.3451 14.0417 16.9583C14.0417 16.5716 14.1953 16.2006 14.4688 15.9271C14.7423 15.6536 15.1132 15.5 15.5 15.5C15.8868 15.5 16.2577 15.6536 16.5312 15.9271C16.8047 16.2006 16.9583 16.5716 16.9583 16.9583ZM16.9583 22.7917C16.9583 23.1784 16.8047 23.5494 16.5312 23.8229C16.2577 24.0964 15.8868 24.25 15.5 24.25C15.1132 24.25 14.7423 24.0964 14.4688 23.8229C14.1953 23.5494 14.0417 23.1784 14.0417 22.7917C14.0417 22.4049 14.1953 22.034 14.4688 21.7605C14.7423 21.487 15.1132 21.3333 15.5 21.3333C15.8868 21.3333 16.2577 21.487 16.5312 21.7605C16.8047 22.034 16.9583 22.4049 16.9583 22.7917ZM24.25 16.9583C24.25 17.3451 24.0964 17.716 23.8229 17.9895C23.5494 18.263 23.1784 18.4167 22.7917 18.4167C22.4049 18.4167 22.034 18.263 21.7605 17.9895C21.487 17.716 21.3333 17.3451 21.3333 16.9583C21.3333 16.5716 21.487 16.2006 21.7605 15.9271C22.034 15.6536 22.4049 15.5 22.7917 15.5C23.1784 15.5 23.5494 15.6536 23.8229 15.9271C24.0964 16.2006 24.25 16.5716 24.25 16.9583ZM24.25 22.7917C24.25 23.1784 24.0964 23.5494 23.8229 23.8229C23.5494 24.0964 23.1784 24.25 22.7917 24.25C22.4049 24.25 22.034 24.0964 21.7605 23.8229C21.487 23.5494 21.3333 23.1784 21.3333 22.7917C21.3333 22.4049 21.487 22.034 21.7605 21.7605C22.034 21.487 22.4049 21.3333 22.7917 21.3333C23.1784 21.3333 23.5494 21.487 23.8229 21.7605C24.0964 22.034 24.25 22.4049 24.25 22.7917Z" fill="#111111" fill-opacity="0.53"/>
</svg>
