<svg width="23" height="23" viewBox="0 0 27 28" fill="none" xmlns="http://www.w3.org/2000/svg">
<path d="M24.9779 2.19608H21.3821V0.823529C21.3821 0.605116 21.2947 0.395648 21.1391 0.241206C20.9835 0.0867644 20.7724 0 20.5524 0C20.3323 0 20.1212 0.0867644 19.9656 0.241206C19.81 0.395648 19.7226 0.605116 19.7226 0.823529V2.19608H8.10555V0.823529C8.10555 0.605116 8.01813 0.395648 7.86251 0.241206C7.7069 0.0867644 7.49584 0 7.27576 0C7.05569 0 6.84463 0.0867644 6.68902 0.241206C6.5334 0.395648 6.44598 0.605116 6.44598 0.823529V2.19608H2.85023C2.33673 2.19608 1.84426 2.39853 1.48115 2.75889C1.11805 3.11926 0.914062 3.60802 0.914062 4.11765V26.0784C0.914062 26.5881 1.11805 27.0768 1.48115 27.4372C1.84426 27.7976 2.33673 28 2.85023 28H24.9779C25.4914 28 25.9839 27.7976 26.347 27.4372C26.7101 27.0768 26.9141 26.5881 26.9141 26.0784V4.11765C26.9141 3.60802 26.7101 3.11926 26.347 2.75889C25.9839 2.39853 25.4914 2.19608 24.9779 2.19608ZM2.85023 3.84314H6.44598V5.21569C6.44598 5.4341 6.5334 5.64357 6.68902 5.79801C6.84463 5.95245 7.05569 6.03922 7.27576 6.03922C7.49584 6.03922 7.7069 5.95245 7.86251 5.79801C8.01813 5.64357 8.10555 5.4341 8.10555 5.21569V3.84314H19.7226V5.21569C19.7226 5.4341 19.81 5.64357 19.9656 5.79801C20.1212 5.95245 20.3323 6.03922 20.5524 6.03922C20.7724 6.03922 20.9835 5.95245 21.1391 5.79801C21.2947 5.64357 21.3821 5.4341 21.3821 5.21569V3.84314H24.9779C25.0512 3.84314 25.1216 3.87206 25.1735 3.92354C25.2253 3.97502 25.2545 4.04484 25.2545 4.11765V8.78431H2.57364V4.11765C2.57364 4.04484 2.60278 3.97502 2.65465 3.92354C2.70652 3.87206 2.77687 3.84314 2.85023 3.84314ZM24.9779 26.3529H2.85023C2.77687 26.3529 2.70652 26.324 2.65465 26.2725C2.60278 26.2211 2.57364 26.1512 2.57364 26.0784V10.4314H25.2545V26.0784C25.2545 26.1512 25.2253 26.2211 25.1735 26.2725C25.1216 26.324 25.0512 26.3529 24.9779 26.3529ZM11.4247 14V22.7843C11.4247 23.0027 11.3373 23.2122 11.1817 23.3666C11.026 23.5211 10.815 23.6078 10.5949 23.6078C10.3748 23.6078 10.1638 23.5211 10.0082 23.3666C9.85255 23.2122 9.76513 23.0027 9.76513 22.7843V15.3327L8.75279 15.8351C8.65526 15.8834 8.5491 15.9122 8.44037 15.9198C8.33164 15.9274 8.22247 15.9136 8.11909 15.8793C8.01571 15.845 7.92015 15.7909 7.83786 15.7199C7.75557 15.649 7.68816 15.5627 7.63949 15.4659C7.59081 15.3691 7.56183 15.2637 7.55418 15.1558C7.54654 15.0479 7.56038 14.9396 7.59493 14.837C7.62947 14.7344 7.68404 14.6395 7.75552 14.5579C7.827 14.4762 7.91398 14.4093 8.01151 14.361L10.2243 13.2629C10.3508 13.2002 10.4914 13.1707 10.6327 13.1771C10.7739 13.1835 10.9112 13.2256 11.0315 13.2994C11.1517 13.3733 11.251 13.4764 11.3198 13.599C11.3886 13.7216 11.4247 13.8596 11.4247 14ZM19.6631 18.0147L16.68 21.9608H19.446C19.6661 21.9608 19.8771 22.0475 20.0327 22.202C20.1883 22.3564 20.2758 22.5659 20.2758 22.7843C20.2758 23.0027 20.1883 23.2122 20.0327 23.3666C19.8771 23.5211 19.6661 23.6078 19.446 23.6078H15.0204C14.8663 23.6078 14.7153 23.5653 14.5842 23.4849C14.4531 23.4044 14.3472 23.2894 14.2783 23.1526C14.2093 23.0158 14.1802 22.8627 14.194 22.7104C14.2079 22.558 14.2642 22.4125 14.3566 22.2902L18.3396 17.0196C18.4543 16.87 18.5368 16.6987 18.582 16.5162C18.6273 16.3337 18.6342 16.1439 18.6025 15.9586C18.5708 15.7733 18.5011 15.5964 18.3977 15.4389C18.2943 15.2815 18.1594 15.1468 18.0014 15.0432C17.8434 14.9396 17.6656 14.8693 17.4791 14.8367C17.2926 14.804 17.1014 14.8098 16.9172 14.8535C16.733 14.8973 16.5598 14.9781 16.4084 15.091C16.257 15.2039 16.1306 15.3464 16.0369 15.5098C15.9874 15.6122 15.9172 15.7033 15.8305 15.7775C15.7438 15.8516 15.6426 15.9072 15.5333 15.9406C15.4239 15.9741 15.3088 15.9847 15.1951 15.9719C15.0814 15.9591 14.9716 15.9231 14.8726 15.8661C14.7736 15.8092 14.6875 15.7325 14.6198 15.641C14.5521 15.5494 14.5042 15.445 14.4791 15.3341C14.4541 15.2233 14.4523 15.1086 14.4741 14.9971C14.4959 14.8856 14.5406 14.7798 14.6056 14.6863C14.8141 14.331 15.0935 14.0217 15.4268 13.7773C15.7601 13.533 16.1401 13.3588 16.5436 13.2654C16.9471 13.172 17.3655 13.1614 17.7733 13.2342C18.1811 13.307 18.5696 13.4617 18.915 13.6888C19.2604 13.9159 19.5554 14.2106 19.7819 14.5549C20.0085 14.8991 20.1618 15.2857 20.2325 15.6909C20.3032 16.096 20.2898 16.5113 20.1931 16.9111C20.0964 17.3109 19.9184 17.6869 19.67 18.0161L19.6631 18.0147Z" fill="black"/>
</svg>
