<svg width="18" height="22" viewBox="0 0 23 27" fill="none" xmlns="http://www.w3.org/2000/svg">
<path d="M21.0833 9.64286H13.4167V1.92857H1.91667V25.0714H21.0833V9.64286ZM20.2898 7.71429L15.3333 2.727V7.71429H20.2898ZM0.958333 0H15.3333L23 7.71429V26.0357C23 26.2915 22.899 26.5367 22.7193 26.7176C22.5396 26.8984 22.2958 27 22.0417 27H0.958333C0.704168 27 0.460412 26.8984 0.28069 26.7176C0.100967 26.5367 0 26.2915 0 26.0357V0.964286C0 0.708541 0.100967 0.463271 0.28069 0.282433C0.460412 0.101594 0.704168 0 0.958333 0ZM5.75 13.5H17.25V15.4286H5.75V13.5ZM5.75 7.71429H10.5417V9.64286H5.75V7.71429ZM5.75 19.2857H17.25V21.2143H5.75V19.2857Z" fill="#111111"/>
</svg>
