<svg width="30" height="32" viewBox="0 0 35 35" fill="none" xmlns="http://www.w3.org/2000/svg">
<path fill-rule="evenodd" clip-rule="evenodd" d="M8.25128 5.03773C8.98919 4.77523 9.73878 4.74023 10.3586 4.74023H11.2511C12.7575 4.74023 14.2261 5.2069 15.4554 6.07753L16.1875 6.59523C16.5715 6.86642 17.03 7.01202 17.5 7.01202C17.9701 7.01202 18.4286 6.86642 18.8125 6.59523L19.5446 6.07753C20.7744 5.2083 22.2431 4.74114 23.749 4.74023H24.6415C25.2627 4.74023 26.0123 4.77523 26.7488 5.03773C28.8531 5.7844 30.5171 7.4994 31.6138 10.2746C32.6988 13.0221 33.2559 16.8663 33.1684 22.0434C33.1494 23.1371 33.0138 24.3621 32.5923 25.4646C32.1679 26.5832 31.4227 27.6375 30.1715 28.2354C29.3906 28.6103 28.5352 28.8042 27.669 28.8027C26.6652 28.8149 25.6801 28.5309 24.8369 27.9861C24.1486 27.534 23.5463 26.9507 23.0315 26.4519L22.8463 26.274C22.2571 25.7052 21.7598 25.2634 21.2086 24.9761C20.5131 24.6161 19.7415 24.4281 18.9584 24.4277H16.0417C15.258 24.4283 14.4858 24.6168 13.79 24.9775C13.2388 25.2634 12.7415 25.7067 12.1523 26.2754L11.9671 26.4534C11.4523 26.9507 10.85 27.5354 10.1617 27.9875C9.31835 28.5318 8.33326 28.8154 7.32961 28.8027C6.46329 28.8037 5.6079 28.6093 4.82711 28.234C3.5744 27.6361 2.83065 26.5832 2.40628 25.4646C1.98482 24.3621 1.84919 23.1371 1.83023 22.0434C1.74273 16.8663 2.29982 13.0221 3.38482 10.2746C4.48148 7.4994 6.1469 5.78294 8.25128 5.03773ZM10.3586 6.92773C9.79857 6.92773 9.35669 6.96711 8.98336 7.09836C7.61253 7.58544 6.34523 8.73898 5.42065 11.0796C4.48586 13.4465 3.93315 16.9654 4.01919 22.0069C4.03523 22.9723 4.15773 23.9144 4.45086 24.6859C4.73961 25.4442 5.16544 25.9721 5.77211 26.2609C6.25816 26.4957 6.79126 26.6169 7.33107 26.6152C8.03836 26.6152 8.56773 26.4169 8.9644 26.1573C9.46753 25.8263 9.91669 25.3946 10.4548 24.874L10.6357 24.699C11.2204 24.1361 11.919 23.4827 12.7838 23.0365C13.7908 22.514 14.9086 22.241 16.0432 22.2402H18.9584C20.0929 22.2402 21.21 22.5129 22.2177 23.035C23.0811 23.4827 23.7811 24.1361 24.3659 24.6975L24.5467 24.8725C25.0863 25.3946 25.534 25.8263 26.0386 26.1559C26.4338 26.4169 26.9632 26.6152 27.6719 26.6152C28.2654 26.6152 28.7831 26.4752 29.2294 26.2623C29.8361 25.9707 30.2619 25.4442 30.5506 24.6873C30.8438 23.9144 30.9663 22.9723 30.9823 22.0069C31.0669 16.9654 30.5157 13.4465 29.5809 11.0782C28.6563 8.73898 27.389 7.58544 26.0181 7.09836C25.6448 6.96711 25.2015 6.92773 24.6429 6.92773H23.7504C22.6975 6.92773 21.6694 7.2544 20.809 7.86253L20.0769 8.38169C19.3236 8.91403 18.4239 9.19986 17.5015 9.19986C16.5791 9.19986 15.6794 8.91403 14.9261 8.38169L14.194 7.86253C13.3335 7.25485 12.306 6.92832 11.2525 6.92773H10.3586ZM10.9375 12.0319C11.2276 12.0319 11.5058 12.1471 11.7109 12.3523C11.916 12.5574 12.0313 12.8356 12.0313 13.1257V14.2194H13.125C13.4151 14.2194 13.6933 14.3346 13.8984 14.5398C14.1035 14.7449 14.2188 15.0231 14.2188 15.3132C14.2188 15.6032 14.1035 15.8814 13.8984 16.0865C13.6933 16.2917 13.4151 16.4069 13.125 16.4069H12.0313V17.5007C12.0313 17.7907 11.916 18.0689 11.7109 18.274C11.5058 18.4792 11.2276 18.5944 10.9375 18.5944C10.6474 18.5944 10.3692 18.4792 10.1641 18.274C9.95901 18.0689 9.84378 17.7907 9.84378 17.5007V16.4069H8.75003C8.45995 16.4069 8.18175 16.2917 7.97663 16.0865C7.77151 15.8814 7.65628 15.6032 7.65628 15.3132C7.65628 15.0231 7.77151 14.7449 7.97663 14.5398C8.18175 14.3346 8.45995 14.2194 8.75003 14.2194H9.84378V13.1257C9.84378 12.8356 9.95901 12.5574 10.1641 12.3523C10.3692 12.1471 10.6474 12.0319 10.9375 12.0319Z" fill="black"/>
<path d="M27.7085 14.9473C27.7085 15.2373 27.5933 15.5155 27.3881 15.7207C27.183 15.9258 26.9048 16.041 26.6147 16.041C26.3247 16.041 26.0465 15.9258 25.8413 15.7207C25.6362 15.5155 25.521 15.2373 25.521 14.9473C25.521 14.6572 25.6362 14.379 25.8413 14.1739C26.0465 13.9688 26.3247 13.8535 26.6147 13.8535C26.9048 13.8535 27.183 13.9688 27.3881 14.1739C27.5933 14.379 27.7085 14.6572 27.7085 14.9473ZM23.3335 14.9473C23.3335 15.2373 23.2183 15.5155 23.0131 15.7207C22.808 15.9258 22.5298 16.041 22.2397 16.041C21.9497 16.041 21.6715 15.9258 21.4663 15.7207C21.2612 15.5155 21.146 15.2373 21.146 14.9473C21.146 14.6572 21.2612 14.379 21.4663 14.1739C21.6715 13.9688 21.9497 13.8535 22.2397 13.8535C22.5298 13.8535 22.808 13.9688 23.0131 14.1739C23.2183 14.379 23.3335 14.6572 23.3335 14.9473ZM24.4272 11.666C24.7173 11.666 24.9955 11.7813 25.2006 11.9864C25.4058 12.1915 25.521 12.4697 25.521 12.7598C25.521 13.0498 25.4058 13.328 25.2006 13.5332C24.9955 13.7383 24.7173 13.8535 24.4272 13.8535C24.1372 13.8535 23.859 13.7383 23.6538 13.5332C23.4487 13.328 23.3335 13.0498 23.3335 12.7598C23.3335 12.4697 23.4487 12.1915 23.6538 11.9864C23.859 11.7813 24.1372 11.666 24.4272 11.666ZM24.4272 16.041C24.5709 16.041 24.7131 16.0693 24.8458 16.1243C24.9785 16.1792 25.0991 16.2598 25.2006 16.3614C25.3022 16.4629 25.3828 16.5835 25.4377 16.7162C25.4927 16.8489 25.521 16.9911 25.521 17.1348C25.521 17.2784 25.4927 17.4206 25.4377 17.5533C25.3828 17.686 25.3022 17.8066 25.2006 17.9082C25.0991 18.0097 24.9785 18.0903 24.8458 18.1453C24.7131 18.2002 24.5709 18.2285 24.4272 18.2285C24.1372 18.2285 23.859 18.1133 23.6538 17.9082C23.4487 17.703 23.3335 17.4248 23.3335 17.1348C23.3335 16.8447 23.4487 16.5665 23.6538 16.3614C23.859 16.1563 24.1372 16.041 24.4272 16.041Z" fill="black"/>
</svg>
