<svg width="35" height="33" viewBox="0 0 35 33" fill="none" xmlns="http://www.w3.org/2000/svg">
<path d="M33.6617 14.0926C33.6617 14.0926 33.6589 14.0898 33.6561 14.087L18.6438 1.08443C18.2614 0.720042 17.7607 0.514204 17.2002 0.505859C16.6703 0.514204 16.1696 0.720042 15.8261 1.04966L0.769323 14.0926C0.186579 14.6044 0.00994765 15.4208 0.342348 16.1356C0.635806 16.7698 1.31451 17.137 2.01269 17.137H4.69832V30.0019C4.69832 31.3454 5.78871 32.4358 7.13222 32.4358H13.0431C13.8108 32.4358 14.4339 31.8127 14.4339 31.045V22.4638C14.4339 22.2092 14.6397 22.0048 14.8929 22.0048H19.5381C19.7912 22.0048 19.9971 22.2092 19.9971 22.4638V31.045C19.9971 31.8127 20.6202 32.4358 21.3879 32.4358H27.2988C28.6437 32.4358 29.7327 31.3454 29.7327 30.0019V17.137H32.4183C33.1165 17.137 33.7952 16.7698 34.0886 16.1356C34.421 15.4208 34.2444 14.6044 33.6617 14.0926Z" fill="#086280"/>
</svg>
