<svg width="28" height="24" viewBox="0 0 35 31" fill="none" xmlns="http://www.w3.org/2000/svg">
<path d="M18.2076 0.559325C18.0025 0.399369 17.7497 0.3125 17.4896 0.3125C17.2294 0.3125 16.9767 0.399369 16.7716 0.559325L0.15625 13.5151L1.59347 15.3327L3.625 13.7487V28.0619C3.62622 28.6748 3.87025 29.2623 4.30367 29.6957C4.73708 30.1291 5.32456 30.3732 5.9375 30.3744H29.0625C29.6754 30.3732 30.2629 30.1291 30.6963 29.6957C31.1297 29.2623 31.3738 28.6748 31.375 28.0619V13.7591L33.4065 15.3431L34.8438 13.5255L18.2076 0.559325ZM19.8125 28.0619H15.1875V18.8119H19.8125V28.0619ZM22.125 28.0619V18.8119C22.125 18.1986 21.8814 17.6104 21.4477 17.1767C21.014 16.743 20.4258 16.4994 19.8125 16.4994H15.1875C14.5742 16.4994 13.986 16.743 13.5523 17.1767C13.1186 17.6104 12.875 18.1986 12.875 18.8119V28.0619H5.9375V11.9461L17.5 2.93889L29.0625 11.9576V28.0619H22.125Z" fill="black"/>
</svg>
