<svg width="23" height="23" viewBox="0 0 30 30" fill="none" xmlns="http://www.w3.org/2000/svg">
<path d="M8.15217 30C7.61217 30 7.17391 29.552 7.17391 29C7.17391 28.448 7.61217 28 8.15217 28H21.8478C22.3878 28 22.8261 28.448 22.8261 29C22.8261 29.552 22.3878 30 21.8478 30H8.15217ZM19.1257 13.4613L12.463 17.564C11.8578 17.936 11.087 17.492 11.087 16.7693V8.56267C11.087 7.84133 11.8578 7.396 12.463 7.768L19.1257 11.872C19.7113 12.232 19.7113 13.1 19.1257 13.4613ZM25.1087 23.3333C26.7287 23.3333 28.0435 21.9893 28.0435 20.3333V5C28.0435 3.344 26.7287 2 25.1087 2H4.8913C3.2713 2 1.95652 3.344 1.95652 5V20.3333C1.95652 21.9893 3.2713 23.3333 4.8913 23.3333H25.1087ZM25.1087 25.3333H4.8913C2.19 25.3333 0 23.0947 0 20.3333V5C0 2.23867 2.19 0 4.8913 0H25.1087C27.81 0 30 2.23867 30 5V20.3333C30 23.0947 27.81 25.3333 25.1087 25.3333Z" fill="black"/>
</svg>
