<svg width="24" height="23" viewBox="0 0 24 23" fill="none" xmlns="http://www.w3.org/2000/svg">
<path d="M22.0008 10.4996C22.0008 10.0089 21.9955 9.51693 21.9848 9.0236C21.9198 5.9586 21.8868 4.4256 20.7558 3.2906C19.6248 2.1546 18.0508 2.1156 14.9018 2.0366C12.9681 1.9878 11.0335 1.9878 9.09979 2.0366C5.95079 2.1156 4.37679 2.1546 3.24579 3.2906C2.11479 4.4256 2.08179 5.9586 2.01579 9.0236C1.99474 10.0075 1.99474 10.9917 2.01579 11.9756C2.08179 15.0406 2.11479 16.5736 3.24579 17.7086C4.37679 18.8446 5.95079 18.8836 9.09979 18.9626C10.0691 18.9873 11.0358 18.9996 11.9998 18.9996" stroke="white" stroke-width="2.5" stroke-linecap="round" stroke-linejoin="round"/>
<path d="M7 7L9.942 8.74C11.657 9.754 12.342 9.754 14.058 8.74L17 7M22 21C21.884 18.476 21.987 17.557 20.344 16.38C19.536 15.8 17.911 15.419 15.718 15.625M17.452 13.093L15.155 15.246C15.0612 15.3393 15.0082 15.466 15.0076 15.5984C15.007 15.7307 15.059 15.8579 15.152 15.952L17.452 18.14" stroke="white" stroke-width="2.5" stroke-linecap="round" stroke-linejoin="round"/>
</svg>
